Coordinates
version=1
nRows=14
nColumns=24
inDegrees=yes

Units are S.I. units (second, meters, Newtons, ...)
Angles are in degrees.

endheader
time	pelvis_tilt	pelvis_list	pelvis_rotation	pelvis_tx	pelvis_ty	pelvis_tz	hip_flexion_r	hip_adduction_r	hip_rotation_r	knee_angle_r	ankle_angle_r	subtalar_angle_r	mtp_angle_r	hip_flexion_l	hip_adduction_l	hip_rotation_l	knee_angle_l	ankle_angle_l	subtalar_angle_l	mtp_angle_l	lumbar_extension	lumbar_bending	lumbar_rotation
      4.42000000	    -10.88950360	      4.44222648	     -0.43788135	     -0.92063455	     -0.01963866	     -0.70728768	     15.88204984	     -7.39194034	     -4.54902314	    -60.04412866	    -25.55846329	    -18.40135573	     -1.39996326	     27.42571862	      5.77724274	    -13.79372168	    -22.85744393	      1.49327154	    -10.55523327	      3.20898806	      6.98713433	     -6.13201732	      0.46558525
      4.42500000	    -10.89329685	      4.39008870	     -0.33425126	     -0.91522261	     -0.01881930	     -0.70807492	     16.76361947	     -7.36481256	     -4.48789310	    -61.11372687	    -25.18893521	    -18.63134765	     -1.18767242	     26.88572521	      5.87663474	    -13.61100531	    -22.54026887	      1.75861518	    -10.46386634	      3.27953735	      6.94808251	     -6.07995488	      0.22944034
      4.43000000	    -11.00735515	      4.32967128	     -0.24496739	     -0.90998389	     -0.01812662	     -0.70881297	     17.78881653	     -7.30413457	     -4.36503047	    -62.14788907	    -24.57401219	    -18.69285961	     -0.82027732	     26.50304653	      5.94233192	    -13.51242404	    -22.26245145	      1.94675873	    -10.40628863	      3.28889325	      7.00457513	     -6.01691787	     -0.04069439
      4.43500000	    -11.06248830	      4.25205276	     -0.15111034	     -0.90469801	     -0.01733510	     -0.70958180	     18.71849760	     -7.23596691	     -4.29062935	    -63.07022626	    -23.84013256	    -18.72809535	     -0.44466815	     26.02775715	      6.00588695	    -13.35110711	    -21.94210969	      2.15842938	    -10.34237353	      3.27665024	      7.00801307	     -5.93137323	     -0.28209675
      4.44000000	    -11.12410954	      4.15688404	     -0.07128305	     -0.89946007	     -0.01653404	     -0.71034178	     19.64843089	     -7.14082158	     -4.20299553	    -63.91077590	    -22.96897539	    -18.66254025	      0.01039453	     25.55877429	      6.04527747	    -13.19333483	    -21.61451564	      2.35581837	    -10.29825432	      3.22360395	      7.01792946	     -5.81896746	     -0.50424688
      4.44500000	    -11.17828692	      4.05892208	      0.01004161	     -0.89421755	     -0.01571137	     -0.71110637	     20.55177281	     -7.04280669	     -4.12638106	    -64.66016091	    -22.01013734	    -18.55492999	      0.50465634	     25.07019816	      6.08302315	    -13.03782959	    -21.26477147	      2.55029364	    -10.23952853	      3.15872631	      7.02246003	     -5.70169894	     -0.72855314
      4.45000000	    -11.22949171	      3.95581689	      0.08311476	     -0.88898554	     -0.01488216	     -0.71188480	     21.44157376	     -6.93920595	     -4.04954415	    -65.32746673	    -20.99530435	    -18.39512983	      1.04758576	     24.56869563	      6.11384909	    -12.88709410	    -20.89487394	      2.74608082	    -10.18529558	      3.08013989	      7.02909984	     -5.57002361	     -0.93800016
      4.45500000	    -11.31223217	      3.87336234	      0.10016588	     -0.88379696	     -0.01406802	     -0.71261762	     22.37211460	     -6.82824918	     -3.89152482	    -65.89979019	    -20.07328637	    -18.30424183	      2.08702087	     24.08706362	      6.15754818	    -12.72340968	    -20.49245987	      2.89655586	    -10.23778910	      2.72837390	      7.07310390	     -5.44558654	     -1.05948704
      4.46000000	    -11.30199658	      3.74990543	      0.22293623	     -0.87854368	     -0.01316444	     -0.71340739	     23.13913101	     -6.72850461	     -3.91865195	    -66.37978004	    -19.05328602	    -18.18469903	      2.50626684	     23.50666669	      6.17210643	    -12.57987264	    -20.10668905	      3.11675447	    -10.05444539	      2.72515449	      7.01865545	     -5.30437692	     -1.33184965
      4.46500000	    -11.32676404	      3.66075175	      0.25235424	     -0.87328826	     -0.01228916	     -0.71413532	     23.95364137	     -6.61506442	     -3.80193087	    -66.77927844	    -18.06114770	    -18.02816061	      3.24158909	     22.93582164	      6.20176862	    -12.49027987	    -19.65425138	      3.24729951	    -10.04719990	      2.55049983	      7.01234702	     -5.17084149	     -1.44663858
      4.47000000	    -11.31553623	      3.55928402	      0.35284570	     -0.86805919	     -0.01139531	     -0.71486087	     24.70073625	     -6.51582062	     -3.78544640	    -67.10563022	    -17.14210645	    -17.94633343	      3.66506159	     22.33154592	      6.22793009	    -12.35489327	    -19.21758831	      3.41899446	     -9.88230720	      2.52419529	      6.95725642	     -5.04961503	     -1.70865305
      4.47500000	    -11.29249351	      3.47796433	      0.41516709	     -0.86277660	     -0.01052326	     -0.71560742	     25.42738923	     -6.43682339	     -3.74525248	    -67.36054234	    -16.28326057	    -17.87040068	      4.08477136	     21.69140563	      6.26987344	    -12.25450817	    -18.73872669	      3.58435322	     -9.77972690	      2.48483983	      6.90862829	     -4.92853370	     -1.88485598
      4.48000000	    -11.25196488	      3.40025613	      0.47923729	     -0.85747919	     -0.00961714	     -0.71629974	     26.10814694	     -6.35549198	     -3.71324744	    -67.52098286	    -15.49937517	    -17.86028068	      4.49442762	     21.02425370	      6.30881135	    -12.16835710	    -18.24378815	      3.69829079	     -9.66357693	      2.42714208	      6.84617203	     -4.81832604	     -2.06985492
      4.48500000	    -11.19032242	      3.32865471	      0.54740559	     -0.85214178	     -0.00872571	     -0.71702004	     26.74243333	     -6.28987123	     -3.69729566	    -67.60217591	    -14.79966017	    -17.90685983	      4.86664538	     20.32327291	      6.35696773	    -12.08794552	    -17.73150848	      3.82598524	     -9.54274980	      2.37409874	      6.76732451	     -4.70829952	     -2.25598284
